# xmcd CD database file
#
# Track frame offsets:
#	182
#	18477
#	41140
#
# Disc length: 783 seconds
#
# Revision: 4
# Processed by: cddbd v1.5.2PL0 Copyright (c) Steve Scherf et al.
# Submitted via: CDex 1.51
#
DISCID=1f030d03
DTITLE=John Farnham - Have a little Faith (In us) (Single)
DYEAR=1996
DGENRE=Rock
TTITLE0=Have a little Faith (In us) (Radio Edit)
TTITLE1=Have a little Faith (In us) (Acoustic Version)
TTITLE2=Cool Water
EXTD=YEAR: 1996
EXTT0=
EXTT1=
EXTT2=
PLAYORDER=
